<svg xmlns="http://www.w3.org/2000/svg" width="49" height="35" viewBox="0 0 49 35">
  <g id="Group_2" data-name="Group 2" transform="translate(49) rotate(180)">
    <path id="Fill_7" data-name="Fill 7" d="M-21.377,21.863C-17.292,31.909-7.248,34.656-5.9,35a17.706,17.706,0,0,1-2.656-5.73,18.1,18.1,0,0,1-.568-5.136A12.043,12.043,0,0,0,0,12.2C0,5.46-5.136,0-11.471,0c-5.854,0-10.684,4.663-11.383,10.685h0l0,.047c-.015.136-.029.272-.04.41A23.051,23.051,0,0,0-21.377,21.863Z" transform="rotate(180)" fill="#ff6348"/>
    <path id="Fill_8" data-name="Fill 8" d="M-21.378,21.863C-17.292,31.909-7.248,34.656-5.9,35a17.706,17.706,0,0,1-2.656-5.73,18.1,18.1,0,0,1-.568-5.136A12.043,12.043,0,0,0,0,12.2C0,5.46-5.136,0-11.471,0c-5.855,0-10.684,4.663-11.384,10.685h0c0,.015,0,.031,0,.047q-.024.2-.041.41A23.062,23.062,0,0,0-21.378,21.863Z" transform="translate(26) rotate(180)" fill="#ff6348"/>
  </g>
</svg>
