<?xml version="1.0" encoding="UTF-8"?>
<svg width="430px" height="430px" viewBox="0 0 430 430" version="1.1" xmlns="http://www.w3.org/2000/svg" xmlns:xlink="http://www.w3.org/1999/xlink">
    <!-- Generator: Sketch 56 (81588) - https://sketch.com -->
    <title>Group</title>
    <desc>Created with Sketch.</desc>
    <g id="Landing-Pages" stroke="none" stroke-width="1" fill="none" fill-rule="evenodd" opacity="0.0516183036">
        <g id="01_vApp-v1---3" transform="translate(-1062.000000, -262.000000)" stroke="#4874B9" stroke-width="3">
            <g id="HERO">
                <g id="BG">
                    <g id="Group" transform="translate(1064.000000, 264.000000)">
                        <path d="M426,213 C426,330.637535 330.626355,426 213.00107,426 C95.3715052,426 0,330.637535 0,213 C0,95.3624653 95.3715052,0 213.00107,0 C330.626355,0 426,95.3624653 426,213 Z" id="Stroke-1"></path>
                        <path d="M389,212.001071 C389,309.754709 309.747803,389 212,389 C114.247912,389 35,309.754709 35,212.001071 C35,114.247433 114.247912,35 212,35 C309.747803,35 389,114.247433 389,212.001071 Z" id="Stroke-3"></path>
                        <path d="M355,212.99786 C355,291.420178 291.422542,355 213,355 C134.579598,355 71,291.420178 71,212.99786 C71,134.577681 134.579598,71 213,71 C291.422542,71 355,134.577681 355,212.99786 Z" id="Stroke-5"></path>
                        <path d="M320,211.5 C320,271.419059 271.419059,320 211.5,320 C151.580941,320 103,271.419059 103,211.5 C103,151.580941 151.580941,103 211.5,103 C271.419059,103 320,151.580941 320,211.5 Z" id="Stroke-7"></path>
                        <path d="M286,211.5 C286,252.643579 252.642621,286 211.5,286 C170.355239,286 137,252.643579 137,211.5 C137,170.356421 170.355239,137 211.5,137 C252.642621,137 286,170.356421 286,211.5 Z" id="Stroke-9"></path>
                        <path d="M254,212 C254,235.201139 235.195433,254 211.998932,254 C188.802431,254 170,235.201139 170,212 C170,188.807405 188.802431,170 211.998932,170 C235.195433,170 254,188.807405 254,212 Z" id="Stroke-11"></path>
                        <path d="M223,211.5 C223,217.850018 217.851886,223 211.501061,223 C205.150235,223 200,217.850018 200,211.5 C200,205.152102 205.150235,200 211.501061,200 C217.851886,200 223,205.152102 223,211.5 Z" id="Stroke-13"></path>
                    </g>
                </g>
            </g>
        </g>
    </g>
</svg>