<?xml version="1.0" encoding="UTF-8"?>
<svg width="410px" height="355px" viewBox="0 0 410 355" version="1.1" xmlns="http://www.w3.org/2000/svg" xmlns:xlink="http://www.w3.org/1999/xlink">
    <!-- Generator: Sketch 56 (81588) - https://sketch.com -->
    <title>hero-shape2.1</title>
    <desc>Created with Sketch.</desc>
    <g id="Landing-Pages" stroke="none" stroke-width="1" fill="none" fill-rule="evenodd">
        <g id="01_vApp-v2" fill="#24BD65">
            <g id="HERO" transform="translate(-5.000000, -13.000000)">
                <g id="BG">
                    <path d="M35.8745514,-164.739054 L181.932054,-164.739054 C244.237355,-164.739054 276.321681,-156.384749 305.655014,-140.69711 C334.988347,-125.009472 358.009319,-101.9885 373.696957,-72.655167 C389.384596,-43.3218337 397.738901,-11.237508 397.738901,51.0677927 L397.738901,107.597053 C397.738901,169.902354 389.384596,201.98668 373.696957,231.320013 C358.009319,260.653346 334.988347,283.674318 305.655014,299.361956 C276.321681,315.049595 244.237355,323.4039 181.932054,323.4039 L35.8745514,323.4039 C-26.4307492,323.4039 -58.5150749,315.049595 -87.8484083,299.361956 C-117.181742,283.674318 -140.202713,260.653346 -155.890352,231.320013 C-171.57799,201.98668 -179.932295,169.902354 -179.932295,107.597053 L-179.932295,51.0677927 C-179.932295,-11.237508 -171.57799,-43.3218337 -155.890352,-72.655167 C-140.202713,-101.9885 -117.181742,-125.009472 -87.8484083,-140.69711 C-58.5150749,-156.384749 -26.4307492,-164.739054 35.8745514,-164.739054 Z" id="hero-shape2.1" transform="translate(108.903303, 79.332423) rotate(29.000000) translate(-108.903303, -79.332423) "></path>
                </g>
            </g>
        </g>
    </g>
</svg>
