<?xml version="1.0" encoding="UTF-8"?>
<svg width="1612px" height="187px" viewBox="0 0 1612 187" version="1.1" xmlns="http://www.w3.org/2000/svg" xmlns:xlink="http://www.w3.org/1999/xlink">
    <!-- Generator: Sketch 56 (81588) - https://sketch.com -->
    <title>Path 13</title>
    <desc>Created with Sketch.</desc>
    <g id="Landing-Pages" stroke="none" stroke-width="1" fill="none" fill-rule="evenodd">
        <g id="01_vApp-v1---2" transform="translate(4.000000, -788.000000)">
            <path d="M-2.16715534e-13,788.415857 C-4.95944403,792.628576 -4.95944403,797.82329 4.63629135e-13,804 C8.53231689,814.626523 35.4315518,839.405206 50.1340948,847 C89.3883771,867.27732 217.080244,905.904614 243.629111,915 C284.511227,929.00582 415.203372,942.085539 440,948.5 C476.588081,957.964707 547.87657,957.186458 574.038038,961.941423 C671.958826,979.738969 762.07936,972 834,972 C911.331924,972 1003.72983,982.517883 1103.5,961.941423 C1155.46219,951.224815 1245.8865,948.182389 1339,915 C1364.02598,906.081618 1406.02491,901.283973 1446.98977,881.551848 C1459.69466,875.432105 1482.17253,874.036066 1508.60981,864 C1518.11005,860.393536 1515.12692,851.963098 1530.61851,847 C1533.17639,846.180524 1560.74321,840.787701 1573.76915,832.366713 C1591.22292,821.083232 1595.31135,805.926254 1600,804 C1610.55058,799.665471 1583.41195,823 1583.41195,820 C1583.41195,816.819304 1596.66095,810.928392 1600,804 C1601.49054,800.907195 1601.49054,795.712481 1600,788.415857 C1605.33333,798.805286 1608,801 1608,795 L-2.16715534e-13,788.415857 Z" id="Path-13"></path>
        </g>
    </g>
</svg>