<?xml version="1.0" encoding="utf-8"?>
<!-- Generator: Adobe Illustrator 22.1.0, SVG Export Plug-In . SVG Version: 6.00 Build 0)  -->
<svg version="1.1" id="Layer_1" xmlns="http://www.w3.org/2000/svg" xmlns:xlink="http://www.w3.org/1999/xlink" x="0px" y="0px"
	 viewBox="0 0 1921 819.8" style="enable-background:new 0 0 1921 819.8;" xml:space="preserve">
<style type="text/css">
	.st0{fill:#FFFFFF;}
	.st1{opacity:1;fill:#FFFFFF!important;}

</style>
<title>Path 8</title>
<desc>Created with Sketch.</desc>
<path class="st0" d="M1921,413.1v406.7H0V0.5h0.4l228.1,598.3c30,74.4,80.8,130.6,152.5,168.6c107.6,57,212.1,40.7,245.7,34.4
	c22.4-4.2,54.9-13.1,97.5-26.6L1921,400.5V413.1z"/>
<path class="st1" d="M1921,387.9v431.9H0V0h13l226.6,594.4c14.4,35.7,34,67.4,58.3,94.3c24.4,26.9,54.2,49.8,88.6,68.1
	c50.2,26.6,105.8,40.1,165.2,40.1c36.1,0,63.6-5.2,72.6-6.9c21.6-4,53.9-12.9,96.1-26.2L1921,387.9z"/>
</svg>


