<?xml version="1.0" encoding="UTF-8"?>
<svg width="545px" height="523px" viewBox="0 0 545 523" version="1.1" xmlns="http://www.w3.org/2000/svg" xmlns:xlink="http://www.w3.org/1999/xlink">
    <!-- Generator: Sketch 56 (81588) - https://sketch.com -->
    <title>hero-shape2.2</title>
    <desc>Created with Sketch.</desc>
    <g id="Landing-Pages" stroke="none" stroke-width="1" fill="none" fill-rule="evenodd">
        <g id="01_vApp-v2" transform="translate(-1055.000000, -366.000000)" fill="#24BD65">
            <g id="HERO" transform="translate(-5.000000, -13.000000)">
                <g id="BG">
                    <path d="M1501.78899,379.862096 L1592.12252,397.421157 C1666.4538,411.869694 1694.15946,425.765797 1719.96051,446.762273 C1745.76157,467.758749 1763.96697,494.749369 1773.76932,526.537109 C1783.57167,558.324849 1786.07719,589.218655 1771.62865,663.549935 L1697.78094,1043.46349 C1683.3324,1117.79477 1669.4363,1145.50042 1648.43982,1171.30148 C1627.44335,1197.10253 1600.45272,1215.30794 1568.66499,1225.11028 C1536.87725,1234.91263 1505.98344,1237.41816 1431.65216,1222.96962 L1341.31862,1205.41056 C1266.98734,1190.96202 1239.28169,1177.06592 1213.48064,1156.06944 C1187.67958,1135.07296 1169.47418,1108.08234 1159.67183,1076.2946 C1149.86948,1044.50686 1147.36396,1013.61306 1161.8125,939.281779 L1235.66021,559.368223 C1250.10875,485.036943 1264.00485,457.331291 1285.00133,431.530236 C1305.9978,405.729181 1332.98842,387.523778 1364.77616,377.72143 C1396.5639,367.919081 1427.45771,365.413559 1501.78899,379.862096 Z" id="hero-shape2.2" transform="translate(1466.720574, 801.415857) rotate(30.000000) translate(-1466.720574, -801.415857) "></path>
                </g>
            </g>
        </g>
    </g>
</svg>